<?xml version="1.0" encoding="UTF-8" standalone="no"?>
<!DOCTYPE svg PUBLIC "-//W3C//DTD SVG 1.1//EN" "http://www.w3.org/Graphics/SVG/1.1/DTD/svg11.dtd">
<svg width="100%" height="100%" viewBox="0 0 1305 890" version="1.1" xmlns="http://www.w3.org/2000/svg" xmlns:xlink="http://www.w3.org/1999/xlink" xml:space="preserve" xmlns:serif="http://www.serif.com/" style="fill-rule:evenodd;clip-rule:evenodd;stroke-linejoin:round;stroke-miterlimit:2;">
    <g transform="matrix(4.16667,0,0,4.16667,-2264.44,-1596.68)">
        <path d="M699.802,496.488C679.318,496.488 661.612,490.13 653.175,480.899C661.612,471.669 679.318,465.311 699.802,465.311C720.285,465.311 737.991,471.669 746.428,480.899C737.991,490.13 720.285,496.488 699.802,496.488ZM699.802,386.689C615.117,386.689 546.467,415.019 546.467,490.988C546.467,566.957 615.117,596.798 699.802,596.798C784.486,596.798 853.137,566.957 853.137,490.988C853.137,415.019 784.486,386.689 699.802,386.689Z" style="fill:rgb(253,190,86);fill-rule:nonzero;"/>
    </g>
    <g transform="matrix(4.16667,0,0,4.16667,-2264.44,-1596.68)">
        <path d="M730.632,435.003L658.977,435.003C643.557,435.003 631.057,447.504 631.057,462.924C631.057,478.344 643.557,490.844 658.977,490.844L668.488,490.844C662.043,488.225 656.765,484.826 653.175,480.899C661.612,471.669 679.318,465.311 699.802,465.311C720.285,465.311 737.991,471.669 746.428,480.899C742.845,484.82 737.577,488.214 731.146,490.831C746.328,490.556 758.552,478.171 758.552,462.924C758.552,447.504 746.052,435.003 730.632,435.003Z" style="fill:rgb(236,164,85);fill-rule:nonzero;"/>
    </g>
    <g transform="matrix(4.16667,0,0,4.16667,-2264.44,-1596.68)">
        <path d="M801.101,406.427C816.325,422.306 825.151,443.418 825.151,470.655C825.151,546.623 756.501,576.465 671.817,576.465C633.373,576.465 598.235,570.314 571.323,556.491C598.69,584.749 646.006,596.798 699.802,596.798C784.486,596.798 853.137,566.957 853.137,490.988C853.137,449.854 833.003,422.692 801.101,406.427Z" style="fill:rgb(236,164,85);fill-rule:nonzero;"/>
    </g>
    <g transform="matrix(4.16667,0,0,4.16667,-2264.44,-1596.68)">
        <path d="M801.753,406.77C826.681,423.431 841.898,448.623 841.898,484.377C841.898,560.345 773.247,590.187 688.563,590.187C649.957,590.187 614.689,583.98 587.735,570.031C615.719,588.641 655.564,596.798 699.802,596.798C784.486,596.798 853.137,566.957 853.137,490.988C853.137,450.137 833.273,423.073 801.753,406.77Z" style="fill:rgb(221,138,78);fill-rule:nonzero;"/>
    </g>
    <g transform="matrix(4.16667,0,0,4.16667,-2264.44,-1596.68)">
        <path d="M695.037,556.736C683.819,558.536 673.368,547.622 661.916,545.11C659.073,544.487 656.131,544.383 653.387,543.316C646.187,540.519 640.252,531.286 632.888,533.43C631.683,533.781 630.557,534.436 629.494,535.184C624.329,538.819 620.453,544.853 618.924,551.644C618.174,554.974 617.82,558.774 615.561,561.001C611.815,564.694 605.829,561.083 603.329,556.167C600.829,551.251 600.121,545.245 597.252,540.609C595.79,538.247 593.81,536.322 592.595,533.777C589.54,527.378 591.152,517.265 585.397,514.298C581.653,512.368 577.336,515.328 574.668,518.94C572,522.55 570.022,527.012 566.58,529.592C547.176,544.133 543.466,502.543 543.466,490.988C543.466,453.873 559.125,425.699 590.005,407.249C616.713,391.292 653.653,383.202 699.801,383.202C745.95,383.202 782.89,391.292 809.597,407.249C824.949,416.421 838.808,429.586 847.154,447.414C853.227,460.387 862.841,489.879 850.686,501.182C846.847,504.752 842.106,506.971 838.665,511.052C832.695,518.133 831.349,529.945 824.054,535.082C817.716,539.546 809.549,537.05 802.669,533.847C795.79,530.645 788.442,526.771 781.26,528.894C777.347,530.05 773.937,532.906 770.044,534.151C756.557,538.464 742.857,522.55 729.318,526.638C715.774,530.727 710.491,552.379 696.914,556.314C696.286,556.496 695.66,556.636 695.037,556.736ZM657.407,481.984C661.192,484.334 665.603,485.904 668.454,487.137C678.381,491.43 689.258,493.001 699.802,493.001C717.191,493.001 744.572,490.198 746.681,465.189C746.869,462.968 746.719,460.463 745.33,458.924C744.375,457.865 743,457.476 741.682,457.408C733.531,456.984 726.377,466.936 718.464,464.63C710.421,462.287 707.243,448.596 698.984,447.746C690.631,446.886 683.756,460.288 675.934,456.774C674.083,455.943 672.469,454.185 670.485,454.156C665.944,454.089 665.215,461.741 662.285,465.776C659.474,469.648 654.527,469.961 650.168,469.974C649.469,475.486 653.017,479.259 657.407,481.984Z" style="fill:rgb(77,30,12);fill-rule:nonzero;"/>
    </g>
    <g transform="matrix(4.16667,0,0,4.16667,-2264.44,-1596.68)">
        <path d="M824.054,535.082C831.349,529.945 832.695,518.133 838.665,511.052C842.106,506.971 846.847,504.752 850.686,501.182C858.949,493.498 857.149,477.412 853.243,463.821C853.466,466.03 853.736,468.241 853.825,470.327C854.583,488.162 839.035,502.209 823.786,511.49C821.937,512.617 820.071,513.714 818.205,514.811C814.869,516.776 811.532,518.738 808.196,520.703C803.055,523.726 797.651,526.833 791.693,527.123C781.882,527.601 773.267,520.406 763.518,519.2C757.636,518.474 751.7,519.974 745.774,519.81C734.181,519.489 722.349,512.891 711.532,517.076C698.555,522.099 692.858,540.821 678.97,541.693C667.837,542.391 659.542,530.679 648.513,529.006C643.632,528.265 638.288,529.509 633.952,527.148C632.007,526.089 630.39,524.349 628.238,523.826C624.01,522.798 620.258,526.807 615.976,527.578C610.531,528.558 605.503,524.049 603.095,519.068C600.687,514.087 599.918,508.43 597.435,503.486C592.241,493.143 579.109,487.553 568.053,490.978C564.169,492.182 560.31,494.375 556.304,493.675C548.548,492.32 546.706,482.066 547.289,474.214C547.862,466.502 549.026,458.836 550.758,451.299C545.913,463.108 543.466,476.349 543.466,490.988C543.466,502.543 547.177,544.133 566.58,529.592C570.022,527.012 572,522.55 574.668,518.94C577.336,515.328 581.653,512.368 585.397,514.298C591.152,517.265 589.54,527.378 592.595,533.777C593.81,536.322 595.79,538.247 597.252,540.609C600.121,545.245 600.829,551.251 603.329,556.167C605.829,561.083 611.815,564.694 615.561,561.001C617.82,558.774 618.174,554.974 618.924,551.644C620.453,544.853 624.329,538.819 629.494,535.184C630.557,534.436 631.683,533.781 632.888,533.43C640.252,531.286 646.187,540.519 653.387,543.316C656.13,544.383 659.073,544.487 661.916,545.11C673.368,547.622 683.819,558.536 695.037,556.736C695.66,556.636 696.286,556.496 696.914,556.314C710.491,552.379 715.775,530.727 729.318,526.638C742.857,522.55 756.557,538.464 770.044,534.151C773.937,532.906 777.347,530.05 781.26,528.894C788.442,526.771 795.79,530.645 802.669,533.847C809.549,537.05 817.716,539.546 824.054,535.082Z" style="fill:rgb(54,20,12);fill-rule:nonzero;"/>
    </g>
    <g transform="matrix(4.16667,0,0,4.16667,-2264.44,-1596.68)">
        <path d="M691.791,432.116C697.011,430.761 701.623,427.755 706.521,425.497C720.875,418.878 737.628,418.85 752.94,422.772C768.252,426.695 782.352,434.316 795.805,442.615C796.39,437.216 793.797,431.59 789.313,428.527C786.874,426.861 783.929,425.895 781.86,423.787C777.939,419.791 778.386,413.073 774.98,408.631C771.718,404.376 765.738,403.27 760.387,403.594C755.035,403.919 749.721,405.345 744.382,404.851C735.951,404.072 728.758,398.687 720.903,395.525C702.102,387.959 680.866,393.468 661.381,399.042C648.824,402.633 636.266,406.225 623.708,409.817C614.981,412.313 599.106,414.471 592.089,420.262C583.94,426.986 592.542,437.374 588.095,442.714C584.23,447.355 578.083,449.247 572.822,452.216C567.559,455.186 562.561,460.706 563.996,466.577C565.237,471.652 570.711,474.448 575.808,475.599C580.905,476.751 586.402,477.007 590.791,479.843C597.271,484.031 599.413,492.525 604.771,498.077C610.143,503.642 618.246,505.696 625.975,506.003C633.704,506.31 641.431,505.127 649.162,505.378C664.59,505.877 679.674,512.062 695.043,510.629C701.946,509.985 708.683,507.81 715.615,507.721C727.14,507.573 738.928,513.154 749.839,509.441C753.928,508.049 757.483,505.447 761.382,503.588C774.628,497.269 791.158,499.763 803.552,491.904C813.746,485.441 819.033,472.109 816.039,460.416C815.515,458.369 814.185,455.981 812.081,456.169C808.661,456.475 809.669,461.699 808.787,465.017C807.666,469.237 802.288,470.782 797.985,470.044C793.682,469.305 789.701,467.074 785.353,466.679C777.296,465.947 770.064,471.612 764.863,477.809C759.661,484.006 755.335,491.217 748.551,495.624C740.2,501.049 729.626,501.285 719.669,501.346C703.968,501.442 688.267,501.538 672.566,501.634C668.374,501.66 663.631,501.452 660.857,498.31C658.659,495.822 658.33,492.106 656.194,489.564C652.224,484.838 644.702,486.466 638.756,484.81C628.36,481.914 624.653,466.187 632.66,458.952C634.449,457.336 636.751,455.961 637.385,453.636C637.924,451.661 637.073,449.61 636.751,447.587C635.606,440.394 641.592,433.601 648.506,431.306C655.42,429.012 662.95,430.111 670.128,431.352C677.306,432.593 684.74,433.946 691.791,432.116Z" style="fill:rgb(129,44,24);fill-rule:nonzero;"/>
    </g>
    <g transform="matrix(4.16667,0,0,4.16667,-2264.44,-1596.68)">
        <path d="M589.919,466.383C593.175,471.534 594.777,477.674 598.558,482.454C602.338,487.233 609.77,490.17 614.5,486.328C614.408,484.632 614.315,482.936 614.223,481.24C607.417,479.039 599.046,474.279 600.693,467.319C602.551,459.47 615.338,459.073 618.012,451.463C620.349,444.809 613.256,436.878 616.975,430.886C618.324,428.714 620.769,427.521 623.086,426.439C631.701,422.415 640.67,418.309 650.179,418.32C659.947,418.331 669.663,422.715 679.233,420.758C687.59,419.05 694.866,412.637 703.39,412.925C707.241,413.055 711.996,414.225 714.255,411.103C716.265,408.325 714.128,404.12 710.977,402.767C707.826,401.413 704.218,402.044 700.852,402.696C693.976,404.029 687.1,405.362 680.224,406.695C657.32,411.134 634.225,415.631 612.726,424.691C608.75,426.367 604.191,429.198 604.433,433.506C604.565,435.843 606.172,437.885 606.403,440.214C607.393,450.193 586.031,450.287 586.984,460.27C587.201,462.544 588.698,464.452 589.919,466.383Z" style="fill:rgb(167,83,40);fill-rule:nonzero;"/>
    </g>
</svg>
