<?xml version="1.0" encoding="UTF-8" standalone="no"?>
<!DOCTYPE svg PUBLIC "-//W3C//DTD SVG 1.1//EN" "http://www.w3.org/Graphics/SVG/1.1/DTD/svg11.dtd">
<svg width="100%" height="100%" viewBox="0 0 1305 899" version="1.1" xmlns="http://www.w3.org/2000/svg" xmlns:xlink="http://www.w3.org/1999/xlink" xml:space="preserve" xmlns:serif="http://www.serif.com/" style="fill-rule:evenodd;clip-rule:evenodd;stroke-linejoin:round;stroke-miterlimit:2;">
    <g transform="matrix(4.16667,0,0,4.16667,-2264.44,-2830.76)">
        <path d="M699.802,794.669C679.318,794.669 661.612,788.311 653.175,779.08C661.612,769.85 679.318,763.492 699.802,763.492C720.285,763.492 737.991,769.85 746.428,779.08C737.991,788.311 720.285,794.669 699.802,794.669ZM699.802,684.87C615.117,684.87 546.467,713.2 546.467,789.169C546.467,865.137 615.117,894.979 699.802,894.979C784.486,894.979 853.137,865.137 853.137,789.169C853.137,713.2 784.486,684.87 699.802,684.87Z" style="fill:rgb(253,190,86);fill-rule:nonzero;"/>
    </g>
    <g transform="matrix(4.16667,0,0,4.16667,-2264.44,-2830.76)">
        <path d="M730.632,733.184L658.977,733.184C643.557,733.184 631.057,745.684 631.057,761.105C631.057,776.525 643.557,789.025 658.977,789.025L668.488,789.025C662.043,786.406 656.765,783.007 653.175,779.08C661.612,769.85 679.318,763.492 699.802,763.492C720.285,763.492 737.991,769.85 746.428,779.08C742.845,783.001 737.577,786.395 731.146,789.012C746.328,788.737 758.552,776.352 758.552,761.105C758.552,745.684 746.052,733.184 730.632,733.184Z" style="fill:rgb(236,164,85);fill-rule:nonzero;"/>
    </g>
    <g transform="matrix(4.16667,0,0,4.16667,-2264.44,-2830.76)">
        <path d="M801.101,704.607C816.325,720.487 825.151,741.599 825.151,768.836C825.151,844.804 756.501,874.646 671.817,874.646C633.373,874.646 598.235,868.495 571.323,854.672C598.69,882.93 646.006,894.979 699.802,894.979C784.486,894.979 853.137,865.137 853.137,789.169C853.137,748.035 833.003,720.873 801.101,704.607Z" style="fill:rgb(236,164,85);fill-rule:nonzero;"/>
    </g>
    <g transform="matrix(4.16667,0,0,4.16667,-2264.44,-2830.76)">
        <path d="M801.753,704.951C826.681,721.612 841.898,746.804 841.898,782.558C841.898,858.526 773.247,888.368 688.563,888.368C649.957,888.368 614.689,882.161 587.735,868.212C615.719,886.822 655.564,894.979 699.802,894.979C784.486,894.979 853.137,865.137 853.137,789.169C853.137,748.318 833.273,721.254 801.753,704.951Z" style="fill:rgb(221,138,78);fill-rule:nonzero;"/>
    </g>
    <g transform="matrix(4.16667,0,0,4.16667,-2264.44,-2830.76)">
        <path d="M695.037,854.917C683.819,856.717 673.368,845.803 661.916,843.291C659.073,842.668 656.131,842.564 653.387,841.497C646.187,838.7 640.252,829.467 632.888,831.611C631.683,831.962 630.557,832.617 629.494,833.365C624.329,837 620.453,843.034 618.924,849.825C618.174,853.155 617.82,856.955 615.561,859.182C611.815,862.875 605.829,859.264 603.329,854.348C600.829,849.432 600.121,843.426 597.252,838.79C595.79,836.428 593.81,834.503 592.595,831.958C589.54,825.559 591.152,815.446 585.397,812.479C581.653,810.549 577.336,813.508 574.668,817.12C572,820.731 570.022,825.193 566.58,827.773C547.176,842.314 543.466,800.724 543.466,789.169C543.466,752.054 559.125,723.88 590.005,705.429C616.713,689.473 653.653,681.383 699.801,681.383C745.95,681.383 782.89,689.473 809.597,705.43C824.949,714.602 838.808,727.766 847.154,745.595C853.227,758.568 862.841,788.06 850.686,799.363C846.847,802.933 842.106,805.152 838.665,809.233C832.695,816.314 831.349,828.126 824.054,833.263C817.716,837.727 809.549,835.231 802.669,832.028C795.79,828.826 788.442,824.952 781.26,827.075C777.347,828.231 773.937,831.087 770.044,832.332C756.557,836.645 742.857,820.731 729.318,824.819C715.774,828.908 710.491,850.559 696.914,854.495C696.286,854.677 695.66,854.817 695.037,854.917ZM657.407,780.165C661.192,782.515 665.603,784.085 668.454,785.318C678.381,789.611 689.258,791.182 699.802,791.182C717.191,791.182 744.572,788.379 746.681,763.37C746.869,761.149 746.719,758.644 745.33,757.105C744.375,756.046 743,755.657 741.682,755.589C733.531,755.165 726.377,765.117 718.464,762.811C710.421,760.468 707.243,746.777 698.984,745.927C690.631,745.067 683.756,758.469 675.934,754.955C674.083,754.124 672.469,752.366 670.485,752.337C665.944,752.27 665.215,759.922 662.285,763.957C659.474,767.829 654.527,768.142 650.168,768.155C649.469,773.667 653.017,777.44 657.407,780.165Z" style="fill:rgb(255,235,195);fill-rule:nonzero;"/>
    </g>
    <g transform="matrix(4.16667,0,0,4.16667,-2264.44,-2830.76)">
        <path d="M824.054,833.263C831.349,828.126 832.695,816.314 838.665,809.233C842.106,805.152 846.847,802.933 850.686,799.363C858.949,791.679 857.149,775.593 853.243,762.002C853.466,764.211 853.736,766.422 853.825,768.508C854.583,786.343 839.035,800.39 823.786,809.671C821.937,810.797 820.071,811.894 818.205,812.992C814.869,814.956 811.532,816.919 808.196,818.883C803.055,821.907 797.651,825.014 791.693,825.304C781.882,825.782 773.267,818.587 763.518,817.381C757.636,816.654 751.7,818.155 745.774,817.991C734.181,817.67 722.349,811.072 711.532,815.257C698.555,820.279 692.858,839.002 678.97,839.874C667.837,840.572 659.542,828.86 648.513,827.187C643.632,826.446 638.288,827.69 633.952,825.329C632.007,824.27 630.39,822.53 628.238,822.007C624.01,820.979 620.258,824.988 615.976,825.759C610.531,826.739 605.503,822.23 603.095,817.249C600.687,812.268 599.918,806.611 597.435,801.667C592.241,791.324 579.109,785.734 568.053,789.159C564.169,790.363 560.31,792.556 556.304,791.856C548.548,790.501 546.706,780.247 547.289,772.395C547.862,764.683 549.026,757.017 550.758,749.48C545.913,761.289 543.466,774.53 543.466,789.169C543.466,800.724 547.177,842.314 566.58,827.773C570.022,825.193 572,820.731 574.668,817.12C577.336,813.508 581.653,810.549 585.397,812.479C591.152,815.446 589.54,825.559 592.595,831.958C593.81,834.503 595.79,836.428 597.252,838.79C600.121,843.426 600.829,849.432 603.329,854.348C605.829,859.264 611.815,862.875 615.561,859.182C617.82,856.955 618.174,853.155 618.924,849.825C620.453,843.034 624.329,837 629.494,833.365C630.557,832.617 631.683,831.962 632.888,831.611C640.252,829.467 646.187,838.7 653.387,841.497C656.13,842.564 659.073,842.668 661.916,843.291C673.368,845.803 683.819,856.717 695.037,854.917C695.66,854.817 696.286,854.677 696.914,854.495C710.491,850.559 715.775,828.908 729.318,824.819C742.857,820.731 756.557,836.645 770.044,832.332C773.937,831.087 777.347,828.231 781.26,827.075C788.442,824.952 795.79,828.826 802.669,832.028C809.549,835.231 817.716,837.727 824.054,833.263Z" style="fill:rgb(255,222,166);fill-rule:nonzero;"/>
    </g>
    <g transform="matrix(4.16667,0,0,4.16667,-2264.44,-2830.76)">
        <path d="M691.791,730.297C697.011,728.942 701.623,725.936 706.521,723.677C720.875,717.059 737.628,717.03 752.94,720.953C768.252,724.876 782.352,732.497 795.805,740.796C796.39,735.397 793.797,729.771 789.313,726.708C786.874,725.042 783.929,724.076 781.86,721.968C777.939,717.972 778.386,711.254 774.98,706.812C771.718,702.557 765.738,701.451 760.387,701.775C755.035,702.099 749.721,703.526 744.382,703.032C735.951,702.253 728.758,696.867 720.903,693.706C702.102,686.14 680.866,691.649 661.381,697.222C648.824,700.814 636.266,704.406 623.708,707.998C614.981,710.494 599.106,712.652 592.089,718.443C583.94,725.167 592.542,735.555 588.095,740.895C584.23,745.536 578.083,747.428 572.822,750.396C567.559,753.366 562.561,758.887 563.996,764.757C565.237,769.833 570.711,772.629 575.808,773.78C580.905,774.932 586.402,775.188 590.791,778.024C597.271,782.212 599.413,790.706 604.771,796.258C610.143,801.823 618.246,803.877 625.975,804.184C633.704,804.491 641.431,803.308 649.162,803.559C664.59,804.058 679.674,810.243 695.043,808.81C701.946,808.166 708.683,805.991 715.615,805.902C727.14,805.754 738.928,811.334 749.839,807.621C753.928,806.23 757.483,803.628 761.382,801.769C774.628,795.45 791.158,797.944 803.552,790.085C813.746,783.622 819.033,770.29 816.039,758.597C815.515,756.55 814.185,754.161 812.081,754.35C808.661,754.656 809.669,759.879 808.787,763.198C807.666,767.418 802.288,768.963 797.985,768.225C793.682,767.486 789.701,765.255 785.353,764.86C777.296,764.128 770.064,769.793 764.863,775.99C759.661,782.186 755.335,789.398 748.551,793.805C740.2,799.23 729.626,799.466 719.669,799.527C703.968,799.623 688.267,799.719 672.566,799.815C668.374,799.841 663.631,799.633 660.857,796.491C658.659,794.003 658.33,790.287 656.194,787.745C652.224,783.019 644.702,784.647 638.756,782.991C628.36,780.095 624.653,764.368 632.66,757.133C634.449,755.517 636.751,754.142 637.385,751.817C637.924,749.841 637.073,747.791 636.751,745.768C635.606,738.574 641.592,731.781 648.506,729.487C655.42,727.193 662.95,728.292 670.128,729.533C677.306,730.774 684.74,732.127 691.791,730.297Z" style="fill:rgb(253,247,232);fill-rule:nonzero;"/>
    </g>
    <g transform="matrix(4.16667,0,0,4.16667,-2264.44,-2830.76)">
        <path d="M589.919,764.564C593.175,769.715 594.777,775.855 598.558,780.635C602.338,785.414 609.77,788.351 614.5,784.509C614.408,782.813 614.315,781.117 614.223,779.421C607.417,777.22 599.046,772.46 600.693,765.5C602.551,757.651 615.338,757.254 618.012,749.644C620.349,742.99 613.256,735.059 616.975,729.067C618.324,726.895 620.769,725.702 623.086,724.62C631.701,720.596 640.67,716.49 650.179,716.501C659.947,716.512 669.663,720.896 679.233,718.939C687.59,717.231 694.866,710.818 703.39,711.106C707.241,711.236 711.996,712.406 714.255,709.284C716.265,706.506 714.128,702.301 710.977,700.948C707.826,699.594 704.218,700.224 700.852,700.877C693.976,702.21 687.1,703.543 680.224,704.876C657.32,709.315 634.225,713.812 612.726,722.872C608.75,724.548 604.191,727.379 604.433,731.687C604.565,734.024 606.172,736.066 606.403,738.395C607.393,748.374 586.031,748.468 586.984,758.451C587.201,760.725 588.698,762.633 589.919,764.564Z" style="fill:rgb(253,253,247);fill-rule:nonzero;"/>
    </g>
    <g transform="matrix(4.16667,0,0,4.16667,-2264.44,-2830.76)">
        <path d="M554.286,757.345C561.814,736.221 579.28,721.386 598.224,710.534C608.271,704.779 618.922,700.118 629.517,695.483C641.476,690.253 653.841,685.325 667.139,686.795C666.335,685.74 665.532,684.685 664.728,683.63C663.513,690.346 656.436,692.935 650.772,695.101C643.685,697.81 636.578,700.462 629.542,703.303C616.409,708.606 603.612,714.749 592.105,723.076C582.099,730.317 573.594,739.598 567.417,750.295C562.24,759.26 557.017,772.905 559.603,783.398C562.384,794.679 580.852,774.344 583.235,771.56C591.984,761.343 600.603,751.31 610.526,742.183C630.362,723.94 653.458,709.367 678.165,698.681C693.105,692.219 708.804,687.495 724.746,684.27C723.805,683.887 722.864,683.504 721.923,683.121C728.359,692.076 715.657,698.954 709.327,702.586C701.67,706.98 693.87,711.124 686.059,715.235C670.922,723.203 655.688,730.994 640.995,739.769C626.757,748.272 613.164,757.901 601.025,769.229C591.15,778.444 579.153,792.334 586.243,806.561C586.892,807.864 588.493,807.996 589.663,807.458C613.173,796.636 632.705,779.475 652.895,763.638C674.333,746.821 697.334,731.985 721.706,719.788C733.511,713.881 745.686,708.747 758.122,704.325C762.876,702.634 793.249,690.658 790.386,704.72C789.235,710.37 781.132,713.567 776.601,715.745C769.826,719.002 762.982,722.113 756.1,725.136C742.532,731.096 728.733,736.52 714.791,741.539C711.781,742.623 713.079,747.455 716.121,746.361C730.474,741.193 744.639,735.548 758.623,729.453C765.514,726.45 772.341,723.299 779.125,720.062C784.228,717.628 790.052,714.878 793.276,709.966C799.099,701.094 792.389,693.33 783.005,692.808C777.485,692.5 771.922,694.581 766.752,696.186C759.512,698.435 752.381,701.022 745.329,703.799C718.481,714.371 693.21,728.644 669.56,745.112C645.739,761.7 624.601,782.131 599.459,796.796C595.466,799.125 591.337,801.208 587.14,803.14C588.28,803.439 589.42,803.738 590.56,804.037C582.514,787.891 606.295,770.571 616.963,762.109C630.519,751.358 645.579,742.568 660.727,734.285C675.758,726.067 691.098,718.429 706.094,710.143C715.525,704.931 736.241,694.512 726.24,680.597C725.541,679.625 724.61,679.207 723.417,679.448C671.697,689.911 624.109,717.396 589.096,756.858C584.776,761.727 580.816,766.899 576.446,771.723C574.044,774.375 571.417,776.805 568.536,778.926C568.395,779.03 564.273,781.888 564.181,780.642C564.032,778.628 564.285,776.53 564.469,774.527C565.723,760.862 573.305,748.292 582.367,738.363C591.979,727.83 604.352,720.356 617.076,714.185C629.992,707.92 643.79,703.905 656.841,698.026C662.672,695.4 668.335,691.67 669.549,684.959C669.861,683.239 668.844,681.983 667.139,681.795C654.898,680.442 643.232,684.253 632.092,688.974C619.736,694.21 607.421,699.661 595.7,706.217C575.517,717.506 557.391,733.774 549.465,756.015C548.38,759.06 553.212,760.359 554.286,757.345Z" style="fill:rgb(77,30,12);fill-rule:nonzero;"/>
    </g>
    <g transform="matrix(4.16667,0,0,4.16667,-2264.44,-2830.76)">
        <path d="M658.644,780.34C646.906,785.75 635.787,792.253 625.313,799.825C620.424,803.359 604.55,812.918 614.398,819.915C618.552,822.866 623.265,821.721 627.844,820.48C634.059,818.795 640.039,816.304 645.817,813.487C658.203,807.448 669.301,799.002 680.283,790.774C682.831,788.865 680.343,784.521 677.76,786.457C661.339,798.76 644.749,810.716 624.666,816.159C623.413,816.515 622.137,816.746 620.837,816.854C617.6,817.234 616.558,815.661 617.714,812.133C619.202,810.601 621.072,809.329 622.741,808.001C626.7,804.85 630.847,801.936 635.053,799.126C643.339,793.59 652.123,788.826 661.167,784.658C664.093,783.309 661.551,779 658.644,780.34Z" style="fill:rgb(77,30,12);fill-rule:nonzero;"/>
    </g>
    <g transform="matrix(4.16667,0,0,4.16667,-2264.44,-2830.76)">
        <path d="M741.054,756.023C753.701,747.818 767.039,740.803 781.001,735.112C787.529,732.451 794.201,730.16 800.939,728.099C807.711,726.028 814.997,723.555 822.115,723.294C825.935,723.155 830.522,724.777 829.839,729.556C829.331,733.104 825.673,736.058 822.987,738.018C816.969,742.411 809.756,745.58 803.029,748.705C789.636,754.927 775.773,760.062 762.644,766.858C749.321,773.755 737.759,783.364 725.088,791.302C712.016,799.492 697.717,805.567 683.407,811.208C676.678,813.86 669.903,816.398 663.152,818.995C658.832,820.657 653.721,823.386 653.656,828.737C653.5,841.601 667.249,843.318 676.948,840.711C690.262,837.133 701.664,828.286 712.809,820.577C724.933,812.189 737.554,804.538 750.51,797.509C776.764,783.267 804.635,772.12 833.36,763.977C837.107,762.914 843.246,760.93 843.64,766.956C843.897,770.885 840.24,773.32 837.233,774.923C830.142,778.704 821.798,780.854 814.322,783.809C799.784,789.554 785.442,795.791 771.281,802.409C765.436,805.141 758.911,807.609 753.812,811.647C749.963,814.694 745.141,820.255 746.768,825.718C750.805,839.262 766.283,831.182 774.36,827.089C787.353,820.506 800.346,813.922 813.338,807.339C816.215,805.881 813.683,801.568 810.815,803.022C796.05,810.503 781.286,817.984 766.522,825.465C762.849,827.326 759.147,829.128 754.972,828.057C748.158,826.309 753.194,818.824 756.12,816.154C761.733,811.032 770.508,808.252 777.299,805.099C792.251,798.157 807.454,791.766 822.83,785.824C832.337,782.151 847.799,779.504 848.64,766.956C849.601,752.616 830.394,759.57 823.543,761.642C809.798,765.799 796.271,770.744 783.057,776.363C755.917,787.904 730.285,802.311 706.099,819.168C695.103,826.831 679.612,839.228 665.279,836.782C661.286,836.1 658.041,832.35 658.777,828.223C659.452,824.439 666.622,822.992 669.542,821.876C676.863,819.076 684.189,816.29 691.454,813.345C705.031,807.843 718.311,801.619 730.655,793.689C743.267,785.586 754.875,776.358 768.315,769.566C781.494,762.906 795.413,757.833 808.756,751.521C816.896,747.67 835.258,740.476 834.931,728.948C834.598,717.154 821.655,717.654 813.219,719.617C799.269,722.863 785.707,727.577 772.579,733.276C760.725,738.423 749.367,744.675 738.531,751.706C735.837,753.453 738.34,757.784 741.054,756.023Z" style="fill:rgb(77,30,12);fill-rule:nonzero;"/>
    </g>
</svg>
