<?xml version="1.0" encoding="UTF-8" standalone="no"?>
<!DOCTYPE svg PUBLIC "-//W3C//DTD SVG 1.1//EN" "http://www.w3.org/Graphics/SVG/1.1/DTD/svg11.dtd">
<svg width="100%" height="100%" viewBox="0 0 1305 890" version="1.1" xmlns="http://www.w3.org/2000/svg" xmlns:xlink="http://www.w3.org/1999/xlink" xml:space="preserve" xmlns:serif="http://www.serif.com/" style="fill-rule:evenodd;clip-rule:evenodd;stroke-linejoin:round;stroke-miterlimit:2;">
    <g transform="matrix(4.16667,0,0,4.16667,-557.892,-2859.78)">
        <path d="M290.229,799.633C269.746,799.633 252.04,793.275 243.603,784.044C252.04,774.814 269.746,768.455 290.229,768.455C310.713,768.455 328.419,774.814 336.856,784.044C328.419,793.275 310.713,799.633 290.229,799.633ZM290.229,689.834C205.545,689.834 136.894,718.164 136.894,794.133C136.894,870.101 205.545,899.943 290.229,899.943C374.914,899.943 443.564,870.101 443.564,794.133C443.564,718.164 374.914,689.834 290.229,689.834Z" style="fill:rgb(253,190,86);fill-rule:nonzero;"/>
    </g>
    <g transform="matrix(4.16667,0,0,4.16667,-557.892,-2859.78)">
        <path d="M321.06,738.148L249.405,738.148C233.985,738.148 221.485,750.648 221.485,766.068C221.485,781.488 233.985,793.989 249.405,793.989L258.915,793.989C252.471,791.37 247.192,787.971 243.603,784.044C252.04,774.814 269.746,768.455 290.229,768.455C310.713,768.455 328.419,774.814 336.856,784.044C333.272,787.965 328.004,791.359 321.574,793.976C336.756,793.701 348.98,781.316 348.98,766.068C348.98,750.648 336.48,738.148 321.06,738.148Z" style="fill:rgb(236,164,85);fill-rule:nonzero;"/>
    </g>
    <g transform="matrix(4.16667,0,0,4.16667,-557.892,-2859.78)">
        <path d="M391.529,709.571C406.753,725.451 415.579,746.563 415.579,773.8C415.579,849.768 346.929,879.61 262.244,879.61C223.801,879.61 188.663,873.459 161.751,859.635C189.117,887.894 236.434,899.943 290.229,899.943C374.914,899.943 443.564,870.101 443.564,794.133C443.564,752.998 423.43,725.837 391.529,709.571Z" style="fill:rgb(236,164,85);fill-rule:nonzero;"/>
    </g>
    <g transform="matrix(4.16667,0,0,4.16667,-557.892,-2859.78)">
        <path d="M392.18,709.915C417.109,726.576 432.325,751.768 432.325,787.522C432.325,863.49 363.675,893.332 278.99,893.332C240.384,893.332 205.116,887.125 178.162,873.176C206.147,891.785 245.992,899.943 290.229,899.943C374.914,899.943 443.564,870.101 443.564,794.133C443.564,753.282 423.701,726.218 392.18,709.915Z" style="fill:rgb(221,138,78);fill-rule:nonzero;"/>
    </g>
    <g transform="matrix(4.16667,0,0,4.16667,-557.892,-2859.78)">
        <path d="M285.464,859.88C274.247,861.681 263.796,850.767 252.344,848.255C249.501,847.631 246.558,847.527 243.814,846.461C236.615,843.664 230.68,834.431 223.316,836.575C222.11,836.926 220.985,837.581 219.922,838.329C214.756,841.963 210.881,847.998 209.352,854.788C208.602,858.119 208.248,861.919 205.989,864.145C202.242,867.839 196.256,864.228 193.757,859.312C191.257,854.396 190.549,848.389 187.68,843.754C186.217,841.391 184.238,839.467 183.023,836.922C179.967,830.523 181.58,820.41 175.824,817.443C172.081,815.513 167.764,818.472 165.096,822.083C162.427,825.695 160.45,830.157 157.008,832.737C137.604,847.278 133.894,805.688 133.894,794.133C133.894,757.018 149.552,728.844 180.433,710.393C207.14,694.437 244.081,686.347 290.229,686.347C336.377,686.347 373.318,694.437 400.025,710.393C415.377,719.566 429.235,732.73 437.581,750.559C443.654,763.532 453.268,793.024 441.114,804.326C437.275,807.896 432.534,810.116 429.092,814.197C423.122,821.278 421.776,833.089 414.482,838.227C408.144,842.691 399.977,840.195 393.097,836.992C386.218,833.79 378.87,829.916 371.688,832.038C367.775,833.195 364.365,836.051 360.472,837.296C346.985,841.609 333.285,825.695 319.746,829.783C306.202,833.872 300.918,855.523 287.341,859.459C286.713,859.641 286.088,859.78 285.464,859.88ZM247.834,785.129C251.62,787.478 256.031,789.048 258.881,790.282C268.808,794.575 279.685,796.146 290.23,796.145C307.619,796.145 335,793.343 337.109,768.334C337.296,766.113 337.147,763.608 335.758,762.068C334.802,761.01 333.428,760.621 332.11,760.552C323.959,760.129 316.805,770.081 308.891,767.775C300.849,765.431 297.671,751.741 289.412,750.89C281.059,750.03 274.184,763.432 266.362,759.919C264.511,759.088 262.896,757.33 260.913,757.3C256.372,757.234 255.642,764.886 252.713,768.92C249.902,772.793 244.954,773.106 240.596,773.119C239.896,778.631 243.445,782.404 247.834,785.129Z" style="fill:rgb(255,235,195);fill-rule:nonzero;"/>
    </g>
    <g transform="matrix(4.16667,0,0,4.16667,-557.892,-2859.78)">
        <path d="M414.482,838.227C421.776,833.089 423.122,821.278 429.092,814.197C432.534,810.116 437.275,807.896 441.114,804.326C449.376,796.643 447.577,780.557 443.671,766.966C443.894,769.174 444.164,771.386 444.252,773.471C445.011,791.306 429.463,805.354 414.214,814.635C412.364,815.76 410.499,816.858 408.633,817.956C405.296,819.919 401.96,821.883 398.623,823.846C393.483,826.871 388.078,829.978 382.121,830.268C372.31,830.746 363.695,823.551 353.946,822.345C348.063,821.617 342.127,823.118 336.202,822.954C324.609,822.633 312.776,816.036 301.96,820.221C288.983,825.242 283.285,843.966 269.398,844.837C258.265,845.536 249.969,833.824 238.941,832.151C234.06,831.41 228.716,832.653 224.38,830.293C222.435,829.234 220.818,827.494 218.666,826.971C214.438,825.943 210.686,829.951 206.403,830.722C200.958,831.703 195.931,827.193 193.522,822.212C191.114,817.232 190.346,811.575 187.863,806.631C182.668,796.288 169.537,790.698 158.481,794.123C154.597,795.327 150.738,797.52 146.732,796.82C138.976,795.465 137.133,785.21 137.717,777.358C138.29,769.647 139.454,761.98 141.185,754.444C136.341,766.253 133.894,779.494 133.894,794.133C133.894,805.688 137.604,847.278 157.008,832.736C160.45,830.157 162.427,825.695 165.096,822.083C167.764,818.472 172.081,815.513 175.824,817.443C181.58,820.41 179.968,830.523 183.023,836.922C184.238,839.467 186.217,841.391 187.68,843.754C190.549,848.389 191.257,854.396 193.757,859.312C196.256,864.228 202.242,867.839 205.989,864.145C208.248,861.919 208.602,858.119 209.352,854.788C210.881,847.998 214.756,841.963 219.922,838.329C220.985,837.581 222.11,836.926 223.316,836.575C230.679,834.431 236.615,843.664 243.814,846.461C246.558,847.527 249.501,847.631 252.344,848.255C263.796,850.767 274.247,861.681 285.464,859.88C286.088,859.78 286.713,859.641 287.341,859.459C300.918,855.523 306.202,833.872 319.746,829.783C333.285,825.695 346.985,841.609 360.472,837.296C364.365,836.051 367.775,833.195 371.688,832.038C378.87,829.916 386.218,833.79 393.097,836.992C399.976,840.195 408.144,842.691 414.482,838.227Z" style="fill:rgb(255,222,166);fill-rule:nonzero;"/>
    </g>
    <g transform="matrix(4.16667,0,0,4.16667,-557.892,-2859.78)">
        <path d="M282.219,735.261C287.439,733.906 292.05,730.9 296.948,728.641C311.303,722.023 328.056,721.994 343.368,725.917C358.68,729.839 372.78,737.461 386.233,745.76C386.818,740.361 384.225,734.735 379.741,731.672C377.301,730.005 374.357,729.04 372.287,726.931C368.366,722.936 368.814,716.218 365.408,711.775C362.145,707.521 356.166,706.414 350.814,706.739C345.463,707.063 340.148,708.49 334.81,707.996C326.378,707.217 319.186,701.831 311.331,698.67C292.53,691.104 271.294,696.613 251.809,702.186C239.251,705.778 226.694,709.37 214.136,712.961C205.409,715.458 189.534,717.615 182.517,723.406C174.368,730.131 182.969,740.518 178.522,745.859C174.658,750.5 168.511,752.392 163.25,755.36C157.986,758.33 152.989,763.85 154.424,769.721C155.665,774.797 161.139,777.593 166.236,778.744C171.333,779.896 176.83,780.152 181.219,782.988C187.699,787.176 189.841,795.67 195.199,801.221C200.571,806.786 208.674,808.841 216.402,809.148C224.131,809.455 231.859,808.272 239.589,808.522C255.017,809.022 270.102,815.206 285.471,813.773C292.374,813.13 299.111,810.955 306.043,810.866C317.567,810.717 329.355,816.298 340.266,812.585C344.355,811.194 347.911,808.592 351.809,806.732C365.055,800.414 381.586,802.907 393.98,795.049C404.173,788.586 409.461,775.253 406.467,763.561C405.943,761.514 404.613,759.125 402.508,759.314C399.089,759.619 400.096,764.843 399.215,768.162C398.094,772.381 392.716,773.927 388.413,773.188C384.11,772.45 380.129,770.218 375.781,769.823C367.724,769.092 360.492,774.757 355.29,780.954C350.089,787.15 345.763,794.362 338.978,798.769C330.628,804.193 320.054,804.43 310.096,804.491C294.395,804.587 278.694,804.683 262.993,804.779C258.802,804.805 254.059,804.597 251.284,801.455C249.086,798.966 248.758,795.25 246.622,792.708C242.651,787.983 235.13,789.611 229.184,787.954C218.788,785.058 215.08,769.331 223.088,762.097C224.876,760.481 227.179,759.106 227.813,756.781C228.352,754.805 227.501,752.754 227.179,750.732C226.034,743.538 232.02,736.745 238.934,734.451C245.848,732.157 253.377,733.256 260.555,734.497C267.733,735.738 275.168,737.091 282.219,735.261Z" style="fill:rgb(253,247,232);fill-rule:nonzero;"/>
    </g>
    <g transform="matrix(4.16667,0,0,4.16667,-557.892,-2859.78)">
        <path d="M180.347,769.528C183.603,774.679 185.205,780.819 188.985,785.598C192.766,790.378 200.198,793.315 204.928,789.472C204.835,787.776 204.743,786.08 204.65,784.384C197.845,782.184 189.474,777.423 191.121,770.464C192.979,762.615 205.766,762.217 208.439,754.608C210.777,747.954 203.683,740.023 207.403,734.031C208.751,731.859 211.196,730.666 213.513,729.584C222.129,725.56 231.098,721.454 240.607,721.465C250.375,721.476 260.09,725.86 269.661,723.903C278.017,722.194 285.293,715.782 293.818,716.07C297.669,716.2 302.424,717.369 304.682,714.248C306.693,711.47 304.555,707.265 301.405,705.912C298.254,704.558 294.646,705.188 291.28,705.841C284.404,707.174 277.527,708.506 270.652,709.839C247.748,714.279 224.652,718.776 203.154,727.836C199.178,729.512 194.619,732.343 194.861,736.651C194.992,738.988 196.6,741.029 196.831,743.359C197.821,753.337 176.459,753.432 177.412,763.414C177.629,765.689 179.126,767.597 180.347,769.528Z" style="fill:rgb(253,253,247);fill-rule:nonzero;"/>
    </g>
    <g transform="matrix(4.16667,0,0,4.16667,-557.892,-2859.78)">
        <path d="M229.852,708.762C229.852,711.328 227.302,713.408 224.156,713.408C221.011,713.408 218.461,711.328 218.461,708.762C218.461,706.196 221.011,704.116 224.156,704.116C227.302,704.116 229.852,706.196 229.852,708.762Z" style="fill:rgb(0,174,239);fill-rule:nonzero;"/>
    </g>
    <g transform="matrix(4.16667,0,0,4.16667,-557.892,-2859.78)">
        <path d="M224.156,704.814C224.037,704.814 223.925,704.836 223.807,704.843C226.314,704.991 228.298,706.679 228.298,708.762C228.298,710.845 226.314,712.533 223.807,712.682C223.925,712.689 224.037,712.71 224.156,712.71C226.829,712.71 228.996,710.943 228.996,708.762C228.996,706.582 226.829,704.814 224.156,704.814Z" style="fill:white;fill-rule:nonzero;"/>
    </g>
    <g transform="matrix(4.16667,0,0,4.16667,-557.892,-2859.78)">
        <path d="M218.201,726.124C218.201,728.69 215.651,730.771 212.505,730.771C209.36,730.771 206.81,728.69 206.81,726.124C206.81,723.558 209.36,721.478 212.505,721.478C215.651,721.478 218.201,723.558 218.201,726.124Z" style="fill:rgb(241,104,142);fill-rule:nonzero;"/>
    </g>
    <g transform="matrix(4.16667,0,0,4.16667,-557.892,-2859.78)">
        <path d="M212.506,722.176C212.386,722.176 212.274,722.198 212.156,722.205C214.664,722.353 216.647,724.041 216.647,726.124C216.647,728.207 214.664,729.895 212.156,730.044C212.274,730.051 212.386,730.072 212.506,730.072C215.178,730.072 217.345,728.305 217.345,726.124C217.345,723.944 215.178,722.176 212.506,722.176Z" style="fill:white;fill-rule:nonzero;"/>
    </g>
    <g transform="matrix(4.16667,0,0,4.16667,-557.892,-2859.78)">
        <path d="M181.534,735.458C181.534,738.024 178.984,740.104 175.839,740.104C172.693,740.104 170.143,738.024 170.143,735.458C170.143,732.891 172.693,730.811 175.839,730.811C178.984,730.811 181.534,732.891 181.534,735.458Z" style="fill:rgb(246,239,108);fill-rule:nonzero;"/>
    </g>
    <g transform="matrix(4.16667,0,0,4.16667,-557.892,-2859.78)">
        <path d="M175.839,731.509C175.719,731.509 175.607,731.531 175.49,731.538C177.997,731.687 179.98,733.375 179.98,735.458C179.98,737.541 177.997,739.229 175.49,739.377C175.607,739.384 175.719,739.406 175.839,739.406C178.512,739.406 180.678,737.638 180.678,735.458C180.678,733.277 178.512,731.509 175.839,731.509Z" style="fill:white;fill-rule:nonzero;"/>
    </g>
    <g transform="matrix(4.16667,0,0,4.16667,-557.892,-2859.78)">
        <path d="M192.519,764.044C192.519,766.61 189.969,768.69 186.823,768.69C183.678,768.69 181.128,766.61 181.128,764.044C181.128,761.478 183.678,759.397 186.823,759.397C189.969,759.397 192.519,761.478 192.519,764.044Z" style="fill:rgb(0,174,239);fill-rule:nonzero;"/>
    </g>
    <g transform="matrix(4.16667,0,0,4.16667,-557.892,-2859.78)">
        <path d="M186.823,760.095C186.704,760.095 186.591,760.117 186.474,760.124C188.981,760.273 190.965,761.961 190.965,764.044C190.965,766.127 188.981,767.815 186.474,767.963C186.591,767.97 186.704,767.992 186.823,767.992C189.496,767.992 191.663,766.224 191.663,764.044C191.663,761.863 189.496,760.095 186.823,760.095Z" style="fill:white;fill-rule:nonzero;"/>
    </g>
    <g transform="matrix(4.16667,0,0,4.16667,-557.892,-2859.78)">
        <path d="M225.185,764.71C225.185,767.276 222.635,769.357 219.49,769.357C216.344,769.357 213.794,767.276 213.794,764.71C213.794,762.144 216.344,760.064 219.49,760.064C222.635,760.064 225.185,762.144 225.185,764.71Z" style="fill:rgb(0,174,239);fill-rule:nonzero;"/>
    </g>
    <g transform="matrix(4.16667,0,0,4.16667,-557.892,-2859.78)">
        <path d="M219.49,760.762C219.37,760.762 219.258,760.784 219.141,760.791C221.648,760.939 223.631,762.627 223.631,764.71C223.631,766.793 221.648,768.481 219.141,768.63C219.258,768.637 219.37,768.659 219.49,768.659C222.163,768.659 224.329,766.891 224.329,764.71C224.329,762.53 222.163,760.762 219.49,760.762Z" style="fill:white;fill-rule:nonzero;"/>
    </g>
    <g transform="matrix(4.16667,0,0,4.16667,-557.892,-2859.78)">
        <path d="M270.519,743.377C270.519,745.943 267.969,748.023 264.823,748.023C261.678,748.023 259.127,745.943 259.127,743.377C259.127,740.811 261.678,738.731 264.823,738.731C267.969,738.731 270.519,740.811 270.519,743.377Z" style="fill:rgb(246,239,108);fill-rule:nonzero;"/>
    </g>
    <g transform="matrix(4.16667,0,0,4.16667,-557.892,-2859.78)">
        <path d="M264.823,739.429C264.704,739.429 264.591,739.451 264.474,739.458C266.981,739.606 268.965,741.294 268.965,743.377C268.965,745.46 266.981,747.148 264.474,747.297C264.591,747.303 264.704,747.325 264.823,747.325C267.496,747.325 269.663,745.558 269.663,743.377C269.663,741.197 267.496,739.429 264.823,739.429Z" style="fill:white;fill-rule:nonzero;"/>
    </g>
    <g transform="matrix(4.16667,0,0,4.16667,-557.892,-2859.78)">
        <path d="M291.852,719.377C291.852,721.943 289.302,724.023 286.156,724.023C283.011,724.023 280.461,721.943 280.461,719.377C280.461,716.811 283.011,714.731 286.156,714.731C289.302,714.731 291.852,716.811 291.852,719.377Z" style="fill:rgb(57,181,74);fill-rule:nonzero;"/>
    </g>
    <g transform="matrix(4.16667,0,0,4.16667,-557.892,-2859.78)">
        <path d="M286.156,715.429C286.037,715.429 285.925,715.451 285.807,715.458C288.314,715.606 290.298,717.294 290.298,719.377C290.298,721.46 288.314,723.148 285.807,723.297C285.925,723.303 286.037,723.325 286.156,723.325C288.829,723.325 290.996,721.558 290.996,719.377C290.996,717.197 288.829,715.429 286.156,715.429Z" style="fill:white;fill-rule:nonzero;"/>
    </g>
    <g transform="matrix(4.16667,0,0,4.16667,-557.892,-2859.78)">
        <path d="M330.519,704.71C330.519,707.276 327.969,709.357 324.823,709.357C321.678,709.357 319.128,707.276 319.128,704.71C319.128,702.144 321.678,700.064 324.823,700.064C327.969,700.064 330.519,702.144 330.519,704.71Z" style="fill:rgb(246,239,108);fill-rule:nonzero;"/>
    </g>
    <g transform="matrix(4.16667,0,0,4.16667,-557.892,-2859.78)">
        <path d="M324.823,700.762C324.704,700.762 324.591,700.784 324.474,700.791C326.981,700.939 328.965,702.627 328.965,704.71C328.965,706.793 326.981,708.481 324.474,708.63C324.591,708.637 324.704,708.659 324.823,708.659C327.496,708.659 329.663,706.891 329.663,704.71C329.663,702.53 327.496,700.762 324.823,700.762Z" style="fill:white;fill-rule:nonzero;"/>
    </g>
    <g transform="matrix(4.16667,0,0,4.16667,-557.892,-2859.78)">
        <path d="M259.851,705.377C259.851,707.943 257.302,710.023 254.156,710.023C251.011,710.023 248.461,707.943 248.461,705.377C248.461,702.811 251.011,700.731 254.156,700.731C257.302,700.731 259.851,702.811 259.851,705.377Z" style="fill:rgb(241,104,142);fill-rule:nonzero;"/>
    </g>
    <g transform="matrix(4.16667,0,0,4.16667,-557.892,-2859.78)">
        <path d="M254.157,701.429C254.037,701.429 253.925,701.451 253.807,701.458C256.314,701.606 258.298,703.294 258.298,705.377C258.298,707.46 256.314,709.148 253.807,709.297C253.925,709.303 254.037,709.325 254.157,709.325C256.829,709.325 258.996,707.558 258.996,705.377C258.996,703.197 256.829,701.429 254.157,701.429Z" style="fill:white;fill-rule:nonzero;"/>
    </g>
    <g transform="matrix(4.16667,0,0,4.16667,-557.892,-2859.78)">
        <path d="M232.519,790.71C232.519,793.276 229.969,795.357 226.823,795.357C223.678,795.357 221.128,793.276 221.128,790.71C221.128,788.144 223.678,786.064 226.823,786.064C229.969,786.064 232.519,788.144 232.519,790.71Z" style="fill:rgb(246,239,108);fill-rule:nonzero;"/>
    </g>
    <g transform="matrix(4.16667,0,0,4.16667,-557.892,-2859.78)">
        <path d="M226.823,786.762C226.704,786.762 226.591,786.784 226.474,786.791C228.981,786.939 230.965,788.627 230.965,790.71C230.965,792.793 228.981,794.481 226.474,794.63C226.591,794.637 226.704,794.659 226.823,794.659C229.496,794.659 231.663,792.891 231.663,790.71C231.663,788.53 229.496,786.762 226.823,786.762Z" style="fill:white;fill-rule:nonzero;"/>
    </g>
    <g transform="matrix(4.16667,0,0,4.16667,-557.892,-2859.78)">
        <path d="M200.519,798.71C200.519,801.276 197.969,803.357 194.823,803.357C191.678,803.357 189.128,801.276 189.128,798.71C189.128,796.144 191.678,794.064 194.823,794.064C197.969,794.064 200.519,796.144 200.519,798.71Z" style="fill:rgb(57,181,74);fill-rule:nonzero;"/>
    </g>
    <g transform="matrix(4.16667,0,0,4.16667,-557.892,-2859.78)">
        <path d="M194.823,794.762C194.704,794.762 194.591,794.784 194.474,794.791C196.981,794.939 198.965,796.627 198.965,798.71C198.965,800.793 196.981,802.481 194.474,802.63C194.591,802.637 194.704,802.659 194.823,802.659C197.496,802.659 199.663,800.891 199.663,798.71C199.663,796.53 197.496,794.762 194.823,794.762Z" style="fill:white;fill-rule:nonzero;"/>
    </g>
    <g transform="matrix(4.16667,0,0,4.16667,-557.892,-2859.78)">
        <path d="M161.852,784.71C161.852,787.276 159.302,789.357 156.156,789.357C153.011,789.357 150.461,787.276 150.461,784.71C150.461,782.144 153.011,780.064 156.156,780.064C159.302,780.064 161.852,782.144 161.852,784.71Z" style="fill:rgb(241,104,142);fill-rule:nonzero;"/>
    </g>
    <g transform="matrix(4.16667,0,0,4.16667,-557.892,-2859.78)">
        <path d="M156.157,780.762C156.037,780.762 155.925,780.784 155.807,780.791C158.314,780.939 160.298,782.627 160.298,784.71C160.298,786.793 158.314,788.481 155.807,788.63C155.925,788.637 156.037,788.659 156.157,788.659C158.829,788.659 160.996,786.891 160.996,784.71C160.996,782.53 158.829,780.762 156.157,780.762Z" style="fill:white;fill-rule:nonzero;"/>
    </g>
    <g transform="matrix(4.16667,0,0,4.16667,-557.892,-2859.78)">
        <path d="M249.185,828.044C249.185,830.61 246.635,832.69 243.49,832.69C240.344,832.69 237.794,830.61 237.794,828.044C237.794,825.478 240.344,823.397 243.49,823.397C246.635,823.397 249.185,825.478 249.185,828.044Z" style="fill:rgb(0,174,239);fill-rule:nonzero;"/>
    </g>
    <g transform="matrix(4.16667,0,0,4.16667,-557.892,-2859.78)">
        <path d="M243.49,824.095C243.37,824.095 243.258,824.117 243.141,824.124C245.648,824.273 247.631,825.961 247.631,828.044C247.631,830.127 245.648,831.815 243.141,831.963C243.258,831.97 243.37,831.992 243.49,831.992C246.163,831.992 248.329,830.224 248.329,828.044C248.329,825.863 246.163,824.095 243.49,824.095Z" style="fill:white;fill-rule:nonzero;"/>
    </g>
    <g transform="matrix(4.16667,0,0,4.16667,-557.892,-2859.78)">
        <path d="M280.519,808.044C280.519,810.61 277.969,812.69 274.823,812.69C271.678,812.69 269.128,810.61 269.128,808.044C269.128,805.478 271.678,803.397 274.823,803.397C277.969,803.397 280.519,805.478 280.519,808.044Z" style="fill:rgb(241,104,142);fill-rule:nonzero;"/>
    </g>
    <g transform="matrix(4.16667,0,0,4.16667,-557.892,-2859.78)">
        <path d="M274.823,804.095C274.704,804.095 274.591,804.117 274.474,804.124C276.981,804.273 278.965,805.961 278.965,808.044C278.965,810.127 276.981,811.815 274.474,811.963C274.591,811.97 274.704,811.992 274.823,811.992C277.496,811.992 279.663,810.224 279.663,808.044C279.663,805.863 277.496,804.095 274.823,804.095Z" style="fill:white;fill-rule:nonzero;"/>
    </g>
    <g transform="matrix(4.16667,0,0,4.16667,-557.892,-2859.78)">
        <path d="M311.185,826.044C311.185,828.61 308.635,830.69 305.49,830.69C302.344,830.69 299.794,828.61 299.794,826.044C299.794,823.478 302.344,821.397 305.49,821.397C308.635,821.397 311.185,823.478 311.185,826.044Z" style="fill:rgb(246,239,108);fill-rule:nonzero;"/>
    </g>
    <g transform="matrix(4.16667,0,0,4.16667,-557.892,-2859.78)">
        <path d="M305.49,822.095C305.37,822.095 305.258,822.117 305.141,822.124C307.648,822.273 309.631,823.961 309.631,826.044C309.631,828.127 307.648,829.815 305.141,829.963C305.258,829.97 305.37,829.992 305.49,829.992C308.163,829.992 310.329,828.224 310.329,826.044C310.329,823.863 308.163,822.095 305.49,822.095Z" style="fill:white;fill-rule:nonzero;"/>
    </g>
    <g transform="matrix(4.16667,0,0,4.16667,-557.892,-2859.78)">
        <path d="M339.852,800.044C339.852,802.61 337.302,804.69 334.156,804.69C331.011,804.69 328.461,802.61 328.461,800.044C328.461,797.478 331.011,795.397 334.156,795.397C337.302,795.397 339.852,797.478 339.852,800.044Z" style="fill:rgb(0,174,239);fill-rule:nonzero;"/>
    </g>
    <g transform="matrix(4.16667,0,0,4.16667,-557.892,-2859.78)">
        <path d="M334.157,796.095C334.037,796.095 333.925,796.117 333.807,796.124C336.314,796.273 338.298,797.961 338.298,800.044C338.298,802.127 336.314,803.815 333.807,803.963C333.925,803.97 334.037,803.992 334.157,803.992C336.829,803.992 338.996,802.224 338.996,800.044C338.996,797.863 336.829,796.095 334.157,796.095Z" style="fill:white;fill-rule:nonzero;"/>
    </g>
    <g transform="matrix(4.16667,0,0,4.16667,-557.892,-2859.78)">
        <path d="M368.519,818.044C368.519,820.61 365.969,822.69 362.823,822.69C359.678,822.69 357.128,820.61 357.128,818.044C357.128,815.478 359.678,813.397 362.823,813.397C365.969,813.397 368.519,815.478 368.519,818.044Z" style="fill:rgb(57,181,74);fill-rule:nonzero;"/>
    </g>
    <g transform="matrix(4.16667,0,0,4.16667,-557.892,-2859.78)">
        <path d="M362.823,814.095C362.704,814.095 362.591,814.117 362.474,814.124C364.981,814.273 366.965,815.961 366.965,818.044C366.965,820.127 364.981,821.815 362.474,821.963C362.591,821.97 362.704,821.992 362.823,821.992C365.496,821.992 367.663,820.224 367.663,818.044C367.663,815.863 365.496,814.095 362.823,814.095Z" style="fill:white;fill-rule:nonzero;"/>
    </g>
    <g transform="matrix(4.16667,0,0,4.16667,-557.892,-2859.78)">
        <path d="M408.519,808.044C408.519,810.61 405.969,812.69 402.823,812.69C399.678,812.69 397.128,810.61 397.128,808.044C397.128,805.478 399.678,803.397 402.823,803.397C405.969,803.397 408.519,805.478 408.519,808.044Z" style="fill:rgb(241,104,142);fill-rule:nonzero;"/>
    </g>
    <g transform="matrix(4.16667,0,0,4.16667,-557.892,-2859.78)">
        <path d="M402.823,804.095C402.704,804.095 402.591,804.117 402.474,804.124C404.981,804.273 406.965,805.961 406.965,808.044C406.965,810.127 404.981,811.815 402.474,811.963C402.591,811.97 402.704,811.992 402.823,811.992C405.496,811.992 407.663,810.224 407.663,808.044C407.663,805.863 405.496,804.095 402.823,804.095Z" style="fill:white;fill-rule:nonzero;"/>
    </g>
    <g transform="matrix(4.16667,0,0,4.16667,-557.892,-2859.78)">
        <path d="M374.519,789.377C374.519,791.943 371.969,794.023 368.823,794.023C365.678,794.023 363.128,791.943 363.128,789.377C363.128,786.811 365.678,784.731 368.823,784.731C371.969,784.731 374.519,786.811 374.519,789.377Z" style="fill:rgb(0,174,239);fill-rule:nonzero;"/>
    </g>
    <g transform="matrix(4.16667,0,0,4.16667,-557.892,-2859.78)">
        <path d="M368.823,785.429C368.704,785.429 368.591,785.451 368.474,785.458C370.981,785.606 372.965,787.294 372.965,789.377C372.965,791.46 370.981,793.148 368.474,793.297C368.591,793.303 368.704,793.325 368.823,793.325C371.496,793.325 373.663,791.558 373.663,789.377C373.663,787.197 371.496,785.429 368.823,785.429Z" style="fill:white;fill-rule:nonzero;"/>
    </g>
    <g transform="matrix(4.16667,0,0,4.16667,-557.892,-2859.78)">
        <path d="M360.519,762.044C360.519,764.61 357.969,766.69 354.823,766.69C351.678,766.69 349.128,764.61 349.128,762.044C349.128,759.478 351.678,757.397 354.823,757.397C357.969,757.397 360.519,759.478 360.519,762.044Z" style="fill:rgb(246,239,108);fill-rule:nonzero;"/>
    </g>
    <g transform="matrix(4.16667,0,0,4.16667,-557.892,-2859.78)">
        <path d="M354.823,758.095C354.704,758.095 354.591,758.117 354.474,758.124C356.981,758.273 358.965,759.961 358.965,762.044C358.965,764.127 356.981,765.815 354.474,765.963C354.591,765.97 354.704,765.992 354.823,765.992C357.496,765.992 359.663,764.224 359.663,762.044C359.663,759.863 357.496,758.095 354.823,758.095Z" style="fill:white;fill-rule:nonzero;"/>
    </g>
    <g transform="matrix(4.16667,0,0,4.16667,-557.892,-2859.78)">
        <path d="M403.185,763.325C403.185,765.891 400.635,767.971 397.49,767.971C394.344,767.971 391.794,765.891 391.794,763.325C391.794,760.759 394.344,758.679 397.49,758.679C400.635,758.679 403.185,760.759 403.185,763.325Z" style="fill:rgb(241,104,142);fill-rule:nonzero;"/>
    </g>
    <g transform="matrix(4.16667,0,0,4.16667,-557.892,-2859.78)">
        <path d="M397.49,759.377C397.37,759.377 397.258,759.399 397.141,759.406C399.648,759.554 401.631,761.242 401.631,763.325C401.631,765.408 399.648,767.096 397.141,767.245C397.258,767.252 397.37,767.273 397.49,767.273C400.163,767.273 402.329,765.506 402.329,763.325C402.329,761.145 400.163,759.377 397.49,759.377Z" style="fill:white;fill-rule:nonzero;"/>
    </g>
    <g transform="matrix(4.16667,0,0,4.16667,-557.892,-2859.78)">
        <path d="M406.519,732.71C406.519,735.276 403.969,737.357 400.823,737.357C397.678,737.357 395.128,735.276 395.128,732.71C395.128,730.144 397.678,728.064 400.823,728.064C403.969,728.064 406.519,730.144 406.519,732.71Z" style="fill:rgb(57,181,74);fill-rule:nonzero;"/>
    </g>
    <g transform="matrix(4.16667,0,0,4.16667,-557.892,-2859.78)">
        <path d="M400.823,728.762C400.704,728.762 400.591,728.784 400.474,728.791C402.981,728.939 404.965,730.627 404.965,732.71C404.965,734.793 402.981,736.481 400.474,736.63C400.591,736.637 400.704,736.659 400.823,736.659C403.496,736.659 405.663,734.891 405.663,732.71C405.663,730.53 403.496,728.762 400.823,728.762Z" style="fill:white;fill-rule:nonzero;"/>
    </g>
    <g transform="matrix(4.16667,0,0,4.16667,-557.892,-2859.78)">
        <path d="M357.852,724.71C357.852,727.276 355.302,729.357 352.156,729.357C349.011,729.357 346.461,727.276 346.461,724.71C346.461,722.144 349.011,720.064 352.156,720.064C355.302,720.064 357.852,722.144 357.852,724.71Z" style="fill:rgb(0,174,239);fill-rule:nonzero;"/>
    </g>
    <g transform="matrix(4.16667,0,0,4.16667,-557.892,-2859.78)">
        <path d="M352.156,720.762C352.037,720.762 351.925,720.784 351.807,720.791C354.314,720.939 356.298,722.627 356.298,724.71C356.298,726.793 354.314,728.481 351.807,728.63C351.925,728.637 352.037,728.659 352.156,728.659C354.829,728.659 356.996,726.891 356.996,724.71C356.996,722.53 354.829,720.762 352.156,720.762Z" style="fill:white;fill-rule:nonzero;"/>
    </g>
    <g transform="matrix(4.16667,0,0,4.16667,-557.892,-2859.78)">
        <path d="M327.185,744.71C327.185,747.276 324.635,749.357 321.49,749.357C318.344,749.357 315.794,747.276 315.794,744.71C315.794,742.144 318.344,740.064 321.49,740.064C324.635,740.064 327.185,742.144 327.185,744.71Z" style="fill:rgb(241,104,142);fill-rule:nonzero;"/>
    </g>
    <g transform="matrix(4.16667,0,0,4.16667,-557.892,-2859.78)">
        <path d="M321.49,740.762C321.37,740.762 321.258,740.784 321.141,740.791C323.648,740.939 325.631,742.627 325.631,744.71C325.631,746.793 323.648,748.481 321.141,748.63C321.258,748.637 321.37,748.659 321.49,748.659C324.163,748.659 326.329,746.891 326.329,744.71C326.329,742.53 324.163,740.762 321.49,740.762Z" style="fill:white;fill-rule:nonzero;"/>
    </g>
    <g transform="matrix(4.16667,0,0,4.16667,-557.892,-2859.78)">
        <path d="M427.852,776.044C427.852,778.61 425.302,780.69 422.156,780.69C419.011,780.69 416.461,778.61 416.461,776.044C416.461,773.478 419.011,771.397 422.156,771.397C425.302,771.397 427.852,773.478 427.852,776.044Z" style="fill:rgb(246,239,108);fill-rule:nonzero;"/>
    </g>
    <g transform="matrix(4.16667,0,0,4.16667,-557.892,-2859.78)">
        <path d="M422.156,772.095C422.037,772.095 421.925,772.117 421.807,772.124C424.314,772.273 426.298,773.961 426.298,776.044C426.298,778.127 424.314,779.815 421.807,779.963C421.925,779.97 422.037,779.992 422.156,779.992C424.829,779.992 426.996,778.224 426.996,776.044C426.996,773.863 424.829,772.095 422.156,772.095Z" style="fill:white;fill-rule:nonzero;"/>
    </g>
    <g transform="matrix(4.16667,0,0,4.16667,-557.892,-2859.78)">
        <path d="M375.852,743.377C375.852,745.943 373.302,748.023 370.156,748.023C367.011,748.023 364.461,745.943 364.461,743.377C364.461,740.811 367.011,738.731 370.156,738.731C373.302,738.731 375.852,740.811 375.852,743.377Z" style="fill:rgb(0,174,239);fill-rule:nonzero;"/>
    </g>
    <g transform="matrix(4.16667,0,0,4.16667,-557.892,-2859.78)">
        <path d="M370.156,739.429C370.037,739.429 369.925,739.451 369.807,739.458C372.314,739.606 374.298,741.294 374.298,743.377C374.298,745.46 372.314,747.148 369.807,747.297C369.925,747.303 370.037,747.325 370.156,747.325C372.829,747.325 374.996,745.558 374.996,743.377C374.996,741.197 372.829,739.429 370.156,739.429Z" style="fill:white;fill-rule:nonzero;"/>
    </g>
</svg>
